<svg width="26" height="31" viewBox="0 0 26 31" fill="none" xmlns="http://www.w3.org/2000/svg">
<path d="M23.9959 4.54285C23.5586 4.54333 23.1392 4.7169 22.8299 5.02549C22.5206 5.33409 22.3465 5.75253 22.3457 6.18907V14.0638C22.3457 14.1605 22.3073 14.2532 22.2388 14.3216C22.1703 14.39 22.0773 14.4284 21.9805 14.4284C21.8836 14.4284 21.7907 14.39 21.7222 14.3216C21.6537 14.2532 21.6152 14.1605 21.6152 14.0638V2.31871C21.6147 1.80683 21.4108 1.31605 21.0482 0.954091C20.6855 0.592134 20.1939 0.388575 19.681 0.388093C19.4217 0.384507 19.1643 0.433469 18.9245 0.532019C18.6847 0.630568 18.4673 0.776654 18.2857 0.961443C17.9348 1.32991 17.7415 1.82037 17.7469 2.32874V14.0638C17.7469 14.1605 17.7084 14.2532 17.6399 14.3216C17.5714 14.39 17.4785 14.4284 17.3816 14.4284C17.2847 14.4284 17.1918 14.39 17.1233 14.3216C17.0548 14.2532 17.0163 14.1605 17.0163 14.0638V2.47185C17.0156 1.91942 16.7954 1.38983 16.4041 0.999208C16.0128 0.608585 15.4822 0.388816 14.9288 0.388093C13.622 0.388093 12.8412 1.51474 12.8412 2.60311V14.0638C12.8412 14.1605 12.8027 14.2532 12.7342 14.3216C12.6657 14.39 12.5728 14.4284 12.4759 14.4284C12.3791 14.4284 12.2862 14.39 12.2176 14.3216C12.1491 14.2532 12.1107 14.1605 12.1107 14.0638V4.67502C12.1102 4.16313 11.9062 3.67235 11.5436 3.3104C11.181 2.94844 10.6893 2.74488 10.1765 2.7444C8.96562 2.7444 8.24237 3.7881 8.24237 4.79808V19.0444H12.5344C13.3811 19.0442 14.2179 19.2262 14.9877 19.5781C15.7576 19.93 16.4423 20.4435 16.9953 21.0835C17.0586 21.1566 17.0903 21.2519 17.0832 21.3483C17.0762 21.4447 17.0311 21.5343 16.9579 21.5976C16.8846 21.6608 16.7892 21.6923 16.6926 21.6853C16.596 21.6783 16.5062 21.6333 16.4429 21.5602C15.9583 20.9995 15.3584 20.5496 14.6839 20.2413C14.0094 19.933 13.2762 19.7735 12.5344 19.7736H7.87709C7.86088 19.773 7.84472 19.7715 7.82869 19.769H7.80952C7.77959 19.7626 7.75048 19.7528 7.72276 19.7399L7.70358 19.7299C7.6796 19.7166 7.65697 19.701 7.63601 19.6834L7.62688 19.6761L5.81601 17.9779C5.16507 17.3624 4.29911 17.025 3.40259 17.0374C2.50607 17.0498 1.64983 17.4112 1.01626 18.0444C0.850748 18.2075 0.75533 18.4285 0.750217 18.6606C0.745103 18.8926 0.830696 19.1176 0.988866 19.2878L7.84787 26.7158C10.5993 29.7603 13.3955 31 17.4994 31C21.9914 31 25.646 27.3147 25.646 22.7835V6.2702C25.6497 5.4325 25.068 4.54285 23.9959 4.54285Z" fill="#F6E9E9"/>
</svg>
