<svg width="26" height="29" viewBox="0 0 26 29" fill="none" xmlns="http://www.w3.org/2000/svg">
<path d="M19.5915 9.55554V3.84358C19.5915 3.08925 19.2913 2.36581 18.7569 1.83241C18.2225 1.29902 17.4978 0.999359 16.7421 0.999359C15.9864 0.999359 15.2616 1.29902 14.7272 1.83241C14.1929 2.36581 13.8927 3.08925 13.8927 3.84358V9.39831H18.9185C19.1519 9.39873 19.3821 9.45252 19.5915 9.55554Z" fill="#F6E9E9"/>
<path d="M6.40851 9.39832V3.62751C6.40851 2.99715 6.15764 2.39261 5.7111 1.94688C5.26455 1.50114 4.6589 1.25073 4.02739 1.25073C3.39588 1.25073 2.79023 1.50114 2.34368 1.94688C1.89714 2.39261 1.64627 2.99715 1.64627 3.62751V10.7386C2.72003 9.8705 4.06014 9.39729 5.44191 9.39832H6.40851Z" fill="#F6E9E9"/>
<path d="M23.0988 15.3381C22.4837 15.3375 21.8796 15.1754 21.3471 14.8681C20.8146 14.5607 20.3725 14.1189 20.0651 13.5871C19.6692 14.5689 18.9884 15.4103 18.1101 16.0032C17.2318 16.5961 16.196 16.9136 15.1357 16.9148H11.5737C12.4307 17.4363 13.1391 18.1689 13.6307 19.0424C14.1224 19.9158 14.3808 20.9008 14.3813 21.9026V23.5071C14.3813 23.6206 14.3361 23.7294 14.2558 23.8097C14.1754 23.8899 14.0663 23.935 13.9527 23.935C13.839 23.935 13.73 23.8899 13.6496 23.8097C13.5692 23.7294 13.524 23.6206 13.524 23.5071V21.9026C13.5223 20.5803 12.9953 19.3126 12.0586 18.3776C11.1218 17.4426 9.85185 16.9165 8.52711 16.9148H8.45102C8.33734 16.9148 8.22831 16.8697 8.14793 16.7895C8.06754 16.7093 8.02238 16.6004 8.02238 16.487C8.02238 16.3735 8.06754 16.2646 8.14793 16.1844C8.22831 16.1042 8.33734 16.0591 8.45102 16.0591H15.1368C16.3177 16.058 17.45 15.5893 18.2851 14.7558C19.1202 13.9224 19.59 12.7924 19.5915 11.6136V10.9258C19.5915 10.7476 19.5206 10.5768 19.3944 10.4508C19.2682 10.3248 19.097 10.2541 18.9185 10.2541H5.44194C4.68838 10.2541 3.94388 10.418 3.26025 10.7345C2.57662 11.0509 1.97028 11.5123 1.48342 12.0864C1.41162 12.1709 1.3409 12.2565 1.27553 12.3452C1.24767 12.3816 1.22195 12.419 1.19623 12.4522C1.13086 12.5442 1.06764 12.6373 1.0087 12.7335C0.98941 12.7645 0.971193 12.7966 0.952975 12.8287C0.892965 12.9357 0.83617 13.0362 0.78259 13.1421L0.756871 13.1945C0.69686 13.3186 0.64328 13.4448 0.593986 13.5732C0.587556 13.5903 0.580054 13.6064 0.573625 13.6235C0.525402 13.7529 0.482539 13.8855 0.443961 14.0193C0.443961 14.0364 0.434316 14.0535 0.43003 14.0706C0.392523 14.2054 0.361446 14.3412 0.335727 14.4781L0.326083 14.5316C0.301436 14.6696 0.282147 14.8097 0.269288 14.9499C0.269288 14.9659 0.269288 14.9819 0.269288 14.9991C0.2575 15.1445 0.25 15.29 0.25 15.4365C0.25 15.7895 0.267146 16.1372 0.295007 16.4827C0.830812 23.2055 6.47926 28.512 13.3493 28.512H14.9075C17.7816 28.5078 20.5368 27.3663 22.5692 25.3378C24.6016 23.3093 25.7455 20.5592 25.75 17.6903V14.1241C25.4216 14.5049 25.0148 14.8105 24.5572 15.02C24.0997 15.2295 23.6022 15.3381 23.0988 15.3381Z" fill="#F6E9E9"/>
<path d="M13.0354 3.87567C13.0354 3.11198 12.7314 2.37956 12.1905 1.83955C11.6495 1.29953 10.9157 0.996155 10.1506 0.996155C9.38552 0.996155 8.65177 1.29953 8.11077 1.83955C7.56977 2.37956 7.26584 3.11198 7.26584 3.87567V9.3951H13.0354V3.87567Z" fill="#F6E9E9"/>
<path d="M23.0989 5.1689C22.3961 5.16975 21.7224 5.44886 21.2255 5.945C20.7287 6.44113 20.4494 7.11374 20.4488 7.81523V11.8371C20.4627 12.5296 20.7481 13.1891 21.2437 13.6739C21.7393 14.1587 22.4055 14.4303 23.0994 14.4303C23.7933 14.4303 24.4595 14.1587 24.9551 13.6739C25.4507 13.1891 25.7361 12.5296 25.75 11.8371V7.81523C25.7492 7.11364 25.4696 6.44103 24.9726 5.94493C24.4756 5.44883 23.8017 5.16975 23.0989 5.1689Z" fill="#F6E9E9"/>
</svg>
