<svg width="24" height="37" viewBox="0 0 24 37" fill="none" xmlns="http://www.w3.org/2000/svg">
<path d="M8.13874 19.9011H12.0773V15.5923C12.0775 15.1604 12.1662 14.733 12.3379 14.3365C12.5095 13.94 12.7607 13.5827 13.0757 13.2866L14.5832 2.58044C14.653 2.00088 14.4923 1.41712 14.1356 0.954504C13.779 0.491886 13.2548 0.187289 12.6757 0.106106C12.0966 0.0249229 11.5087 0.173626 11.0382 0.520291C10.5677 0.866957 10.2521 1.38395 10.1592 1.96027L8.06982 16.2626C8.05644 16.3564 8.00963 16.4421 7.938 16.5041C7.86637 16.5662 7.77472 16.6003 7.67989 16.6003C7.58506 16.6003 7.49341 16.5662 7.42178 16.5041C7.35015 16.4421 7.30336 16.3564 7.28998 16.2626L5.19564 1.91997C5.15491 1.63001 5.05736 1.35091 4.90856 1.09858C4.75977 0.84626 4.56264 0.625659 4.32844 0.449379C4.09423 0.273099 3.82754 0.144591 3.54358 0.0711926C3.25962 -0.00220599 2.96396 -0.0190564 2.67347 0.0216004C2.38299 0.0622572 2.10338 0.159626 1.85059 0.308149C1.59781 0.456672 1.3768 0.653438 1.2002 0.887215C1.0236 1.12099 0.894851 1.3872 0.821319 1.67064C0.747786 1.95408 0.73091 2.24921 0.771642 2.53916C1.34963 6.84403 1.7868 9.91542 2.10681 12.1583C2.91619 17.8382 3.05305 18.8053 3.07668 22.8251C3.58913 21.9372 4.32671 21.1995 5.21528 20.6862C6.10385 20.173 7.11211 19.9022 8.13874 19.9011Z" fill="#F6E9E9"/>
<path d="M20.8495 24.6984C20.3225 24.6983 19.8038 24.5676 19.3398 24.3182C18.8759 24.0688 18.4811 23.7084 18.1909 23.2694C17.8769 24.1086 17.3138 24.8321 16.5767 25.3432C15.8396 25.8543 14.9638 26.1286 14.0663 26.1295H12.4909C13.2109 26.5847 13.804 27.2142 14.2152 27.9593C14.6265 28.7045 14.8425 29.5413 14.8432 30.3921V31.7681C14.8432 31.8723 14.8017 31.9723 14.7278 32.0461C14.6539 32.1198 14.5538 32.1612 14.4493 32.1612C14.3448 32.1612 14.2447 32.1198 14.1708 32.0461C14.097 31.9723 14.0555 31.8723 14.0555 31.7681V30.3921C14.0528 29.2623 13.6015 28.1797 12.8005 27.3815C11.9994 26.5834 10.9139 26.1349 9.78211 26.1344C9.67765 26.1344 9.57748 26.093 9.50362 26.0192C9.42976 25.9455 9.38825 25.8455 9.38825 25.7412C9.38825 25.637 9.42976 25.537 9.50362 25.4632C9.57748 25.3895 9.67765 25.3481 9.78211 25.3481H14.0673C14.9237 25.3485 15.7522 25.0439 16.4038 24.4891C16.7258 24.2153 16.9976 23.8877 17.2073 23.521C17.5032 23.0028 17.6647 22.419 17.677 21.8226C17.677 21.7961 17.677 21.7696 17.677 21.742C17.6759 21.6873 17.6703 21.6327 17.6602 21.5789C17.6602 21.5661 17.6602 21.5533 17.6602 21.5406C17.6131 21.3018 17.4845 21.0868 17.2963 20.9322C17.1081 20.7775 16.8721 20.6928 16.6283 20.6924H8.13875C6.79799 20.6944 5.51276 21.2271 4.56479 22.1735C3.61682 23.1199 3.08347 24.4029 3.08164 25.7412C3.08164 28.7478 4.21497 31.4644 6.27188 33.3898C7.28306 34.3287 8.4757 35.0517 9.77671 35.5142C11.0777 35.9768 12.4597 36.1693 13.8378 36.0798C19.1145 35.7388 23.249 31.1656 23.249 25.6774V23.6134C22.95 23.9549 22.5811 24.2285 22.1671 24.4156C21.7532 24.6028 21.3039 24.6993 20.8495 24.6984Z" fill="#F6E9E9"/>
<path d="M20.8494 15.7162C20.213 15.717 19.6029 15.9697 19.1529 16.4189C18.7029 16.8681 18.4497 17.4771 18.4489 18.1124V21.4855C18.4614 21.5691 18.468 21.6535 18.4686 21.7381C18.4686 21.7578 18.4686 21.7784 18.4686 21.798C18.5387 22.4058 18.8392 22.9637 19.3085 23.3573C19.7777 23.7508 20.3801 23.9501 20.992 23.9143C21.6038 23.8784 22.1787 23.6101 22.5986 23.1645C23.0185 22.7189 23.2516 22.1297 23.25 21.5179V18.1114C23.2492 17.4762 22.996 16.8673 22.546 16.4182C22.0959 15.9692 21.4858 15.7167 20.8494 15.7162Z" fill="#F6E9E9"/>
<path d="M14.4857 13.3279C14.4503 13.3397 14.4175 13.3525 14.3873 13.3662C14.3528 13.38 14.3183 13.3937 14.2888 13.4095C14.2593 13.4252 14.2179 13.4419 14.1835 13.4596L14.0929 13.5077C14.0555 13.5284 14.019 13.551 13.9836 13.5746C13.9481 13.5982 13.9324 13.606 13.9068 13.6237C13.8812 13.6414 13.8309 13.6788 13.7945 13.7082C13.7729 13.725 13.7512 13.7407 13.7305 13.7584C13.4614 13.9826 13.2448 14.2631 13.0961 14.5799C12.9474 14.8968 12.8702 15.2424 12.8699 15.5924V19.9012H16.6382C17.0064 19.9005 17.3661 20.0112 17.6701 20.2186V15.5924C17.6694 14.9997 17.4488 14.4283 17.051 13.9884C16.6532 13.5485 16.1062 13.2712 15.5157 13.2099C15.4343 13.2012 15.3524 13.197 15.2705 13.1972C15.1942 13.1971 15.118 13.2011 15.0421 13.209C15.0115 13.209 14.981 13.2168 14.9515 13.2208C14.9219 13.2247 14.8629 13.2325 14.8195 13.2414C14.7762 13.2502 14.7477 13.2571 14.7122 13.265C14.6768 13.2728 14.6393 13.2827 14.6029 13.2935L14.4857 13.3279Z" fill="#F6E9E9"/>
</svg>
